SRRun01_grf
version=1
nRows=15
nColumns=19
inDegrees=no
endheader
time	ground_force_r_vx	ground_force_r_vy	ground_force_r_vz	ground_force_r_px	ground_force_r_py	ground_force_r_pz	ground_force_r_mx	ground_force_r_my	ground_force_r_mz	ground_force_l_vx	ground_force_l_vy	ground_force_l_vz	ground_force_l_px	ground_force_l_py	ground_force_l_pz	ground_force_l_mx	ground_force_l_my	ground_force_l_mz
    142.49700000	      0.00000000	      0.00000000	      0.00000000	      0.00000000	      0.00000000	      0.00000000	      0.00000000	      0.00000000	      0.00000000	      0.00000000	      0.00000000	      0.00000000	      0.00000000	      0.00000000	      0.00000000	      0.00000000	      0.00000000	      0.00000000
    142.49800000	      0.00000000	      0.00000000	      0.00000000	      0.00000000	      0.00000000	      0.00000000	      0.00000000	      0.00000000	      0.00000000	      0.00000000	      0.00000000	      0.00000000	      0.00000000	      0.00000000	      0.00000000	      0.00000000	      0.00000000	      0.00000000
    142.49900000	      0.00000000	      0.00000000	      0.00000000	      0.00000000	      0.00000000	      0.00000000	      0.00000000	      0.00000000	      0.00000000	     -0.00000000	      0.00000000	     -0.00000000	      0.00000000	      0.00000000	     -0.00000000	      0.00000000	      0.00000000	      0.00000000
    142.50000000	      0.00000000	      0.00000000	      0.00000000	      0.00000000	      0.00000000	      0.00000000	      0.00000000	      0.00000000	      0.00000000	     -9.56619759	     60.03274909	    -17.32613937	      1.26123640	      0.00000000	     -0.44598062	      0.00000180	      4.07051895	      0.00000208
    142.50100000	      0.00000000	      0.00000000	      0.00000000	      0.00000000	      0.00000000	      0.00000000	      0.00000000	      0.00000000	      0.00000000	    -15.33160825	     86.22392623	    -14.97589678	      1.27676964	      0.00000000	     -0.43953371	      0.00000211	      8.65700852	      0.00000421
    142.50200000	      0.00000000	      0.00000000	      0.00000000	      0.00000000	      0.00000000	      0.00000000	      0.00000000	      0.00000000	      0.00000000	    -20.78758052	    113.94792440	    -12.16207736	      1.29065476	      0.00000000	     -0.43344466	      0.00000242	     13.25049387	      0.00000636
    142.50300000	      0.00000000	      0.00000000	      0.00000000	      0.00000000	      0.00000000	      0.00000000	      0.00000000	      0.00000000	      0.00000000	    -25.90878416	    143.24571088	     -8.57075960	      1.30253499	      0.00000000	     -0.42791341	      0.00000274	     17.69193928	      0.00000859
    142.50400000	      0.00000000	      0.00000000	      0.00000000	      0.00000000	      0.00000000	      0.00000000	      0.00000000	      0.00000000	      0.00000000	    -30.76246233	    174.14906212	     -3.87656867	      1.31213179	      0.00000000	     -0.42307878	      0.00000310	     21.80532680	      0.00001094
    142.50500000	      0.00000000	      0.00000000	      0.00000000	      0.00000000	      0.00000000	      0.00000000	      0.00000000	      0.00000000	      0.00000000	    -35.50360570	    206.65369826	      2.23376420	      1.31926753	      0.00000000	     -0.41901132	      0.00000353	     25.40326642	      0.00001347
    142.50600000	      0.00000000	      0.00000000	      0.00000000	      0.00000000	      0.00000000	      0.00000000	      0.00000000	      0.00000000	      0.00000000	    -40.35558096	    240.69360282	     10.03758529	      1.32388639	      0.00000000	     -0.41571576	      0.00000403	     28.29451801	      0.00001619
    142.50700000	      0.00000000	      0.00000000	      0.00000000	      0.00000000	      0.00000000	      0.00000000	      0.00000000	      0.00000000	      0.00000000	    -45.57776304	    276.12078259	     19.75419327	      1.32606832	      0.00000000	     -0.41314041	      0.00000463	     30.29325613	      0.00001911
    142.50800000	      0.00000000	      0.00000000	      0.00000000	      0.00000000	      0.00000000	      0.00000000	      0.00000000	      0.00000000	      0.00000000	    -51.42378329	    312.69446063	     31.52562447	      1.32603001	      0.00000000	     -0.41119075	      0.00000536	     31.22972661	      0.00002223
    142.50900000	      0.00000000	      0.00000000	      0.00000000	      0.00000000	      0.00000000	      0.00000000	      0.00000000	      0.00000000	      0.00000000	    -58.09548875	    350.08274912	     45.40082261	      1.32410921	      0.00000000	     -0.40974461	      0.00000622	     30.96180473	      0.00002551
    142.51000000	      0.00000000	      0.00000000	      0.00000000	      0.00000000	      0.00000000	      0.00000000	      0.00000000	      0.00000000	      0.00000000	    -65.69841210	    387.87791174	     61.32347254	      1.32073256	      0.00000000	     -0.40866724	      0.00000720	     29.38678063	      0.00002888
    142.51100000	      0.00000000	      0.00000000	      0.00000000	      0.00000000	      0.00000000	      0.00000000	      0.00000000	      0.00000000	      0.00000000	    -74.20450838	    425.62358174	     79.12414622	      1.31637157	      0.00000000	     -0.40782459	      0.00000831	     26.45244454	      0.00003230
